<svg width="130" height="130" viewBox="0 0 130 130" fill="none" xmlns="http://www.w3.org/2000/svg">
<rect width="130" height="130" fill="white"/>
<path d="M53.1051 32.984C54.4278 32.984 55.5905 33.2507 56.5931 33.784C57.5958 34.296 58.3851 34.968 58.9611 35.8V33.272H63.4731V51.128C63.4731 52.7707 63.1425 54.232 62.4811 55.512C61.8198 56.8133 60.8278 57.8373 59.5051 58.584C58.1825 59.352 56.5825 59.736 54.7051 59.736C52.1878 59.736 50.1185 59.1493 48.4971 57.976C46.8971 56.8027 45.9905 55.2027 45.7771 53.176H50.2251C50.4598 53.9867 50.9611 54.6267 51.7291 55.096C52.5185 55.5867 53.4678 55.832 54.5771 55.832C55.8785 55.832 56.9345 55.4373 57.7451 54.648C58.5558 53.88 58.9611 52.7067 58.9611 51.128V48.376C58.3851 49.208 57.5851 49.9013 56.5611 50.456C55.5585 51.0107 54.4065 51.288 53.1051 51.288C51.6118 51.288 50.2465 50.904 49.0091 50.136C47.7718 49.368 46.7905 48.2907 46.0651 46.904C45.3611 45.496 45.0091 43.8853 45.0091 42.072C45.0091 40.28 45.3611 38.6907 46.0651 37.304C46.7905 35.9173 47.7611 34.8507 48.9771 34.104C50.2145 33.3573 51.5905 32.984 53.1051 32.984ZM58.9611 42.136C58.9611 41.048 58.7478 40.12 58.3211 39.352C57.8945 38.5627 57.3185 37.9653 56.5931 37.56C55.8678 37.1333 55.0891 36.92 54.2571 36.92C53.4251 36.92 52.6571 37.1227 51.9531 37.528C51.2491 37.9333 50.6731 38.5307 50.2251 39.32C49.7985 40.088 49.5851 41.0053 49.5851 42.072C49.5851 43.1387 49.7985 44.0773 50.2251 44.888C50.6731 45.6773 51.2491 46.2853 51.9531 46.712C52.6785 47.1387 53.4465 47.352 54.2571 47.352C55.0891 47.352 55.8678 47.1493 56.5931 46.744C57.3185 46.3173 57.8945 45.72 58.3211 44.952C58.7478 44.1627 58.9611 43.224 58.9611 42.136ZM75.7206 51.288C74.014 51.288 72.478 50.9147 71.1126 50.168C69.7473 49.4 68.67 48.3227 67.8806 46.936C67.1126 45.5493 66.7286 43.9493 66.7286 42.136C66.7286 40.3227 67.1233 38.7227 67.9126 37.336C68.7233 35.9493 69.822 34.8827 71.2086 34.136C72.5953 33.368 74.142 32.984 75.8486 32.984C77.5553 32.984 79.102 33.368 80.4886 34.136C81.8753 34.8827 82.9633 35.9493 83.7526 37.336C84.5633 38.7227 84.9686 40.3227 84.9686 42.136C84.9686 43.9493 84.5526 45.5493 83.7206 46.936C82.91 48.3227 81.8006 49.4 80.3926 50.168C79.006 50.9147 77.4486 51.288 75.7206 51.288ZM75.7206 47.384C76.5313 47.384 77.2886 47.192 77.9926 46.808C78.718 46.4027 79.294 45.8053 79.7206 45.016C80.1473 44.2267 80.3606 43.2667 80.3606 42.136C80.3606 40.4507 79.9126 39.16 79.0166 38.264C78.142 37.3467 77.0646 36.888 75.7846 36.888C74.5046 36.888 73.4273 37.3467 72.5526 38.264C71.6993 39.16 71.2726 40.4507 71.2726 42.136C71.2726 43.8213 71.6886 45.1227 72.5206 46.04C73.374 46.936 74.4406 47.384 75.7206 47.384ZM55.1459 58.016C57.3219 58.016 59.0712 58.688 60.3939 60.032C61.7379 61.3547 62.4099 63.2107 62.4099 65.6V76H57.9299V66.208C57.9299 64.8213 57.5779 63.7653 56.8739 63.04C56.1699 62.2933 55.2099 61.92 53.9939 61.92C52.7779 61.92 51.8072 62.2933 51.0819 63.04C50.3779 63.7653 50.0259 64.8213 50.0259 66.208V76H45.5459V66.208C45.5459 64.8213 45.1939 63.7653 44.4899 63.04C43.7859 62.2933 42.8259 61.92 41.6099 61.92C40.3725 61.92 39.3912 62.2933 38.6659 63.04C37.9619 63.7653 37.6099 64.8213 37.6099 66.208V76H33.1299V58.272H37.6099V60.416C38.1859 59.6693 38.9219 59.0827 39.8179 58.656C40.7352 58.2293 41.7379 58.016 42.8259 58.016C44.2125 58.016 45.4499 58.3147 46.5379 58.912C47.6259 59.488 48.4685 60.32 49.0659 61.408C49.6419 60.384 50.4739 59.5627 51.5619 58.944C52.6712 58.3253 53.8659 58.016 55.1459 58.016ZM65.5091 67.072C65.5091 65.28 65.8611 63.6907 66.5651 62.304C67.2905 60.9173 68.2611 59.8507 69.4771 59.104C70.7145 58.3573 72.0905 57.984 73.6051 57.984C74.9278 57.984 76.0798 58.2507 77.0611 58.784C78.0638 59.3173 78.8638 59.9893 79.4611 60.8V58.272H83.9731V76H79.4611V73.408C78.8851 74.24 78.0851 74.9333 77.0611 75.488C76.0585 76.0213 74.8958 76.288 73.5731 76.288C72.0798 76.288 70.7145 75.904 69.4771 75.136C68.2611 74.368 67.2905 73.2907 66.5651 71.904C65.8611 70.496 65.5091 68.8853 65.5091 67.072ZM79.4611 67.136C79.4611 66.048 79.2478 65.12 78.8211 64.352C78.3945 63.5627 77.8185 62.9653 77.0931 62.56C76.3678 62.1333 75.5891 61.92 74.7571 61.92C73.9251 61.92 73.1571 62.1227 72.4531 62.528C71.7491 62.9333 71.1731 63.5307 70.7251 64.32C70.2985 65.088 70.0851 66.0053 70.0851 67.072C70.0851 68.1387 70.2985 69.0773 70.7251 69.888C71.1731 70.6773 71.7491 71.2853 72.4531 71.712C73.1785 72.1387 73.9465 72.352 74.7571 72.352C75.5891 72.352 76.3678 72.1493 77.0931 71.744C77.8185 71.3173 78.3945 70.72 78.8211 69.952C79.2478 69.1627 79.4611 68.224 79.4611 67.136ZM92.8286 61.024C93.4046 60.0853 94.1513 59.3493 95.0686 58.816C96.0073 58.2827 97.074 58.016 98.2686 58.016V62.72H97.0846C95.6766 62.72 94.61 63.0507 93.8846 63.712C93.1806 64.3733 92.8286 65.5253 92.8286 67.168V76H88.3486V58.272H92.8286V61.024ZM49.9906 96.872L54.4706 83.272H59.2386L52.6786 101H47.2386L40.7106 83.272H45.5106L49.9906 96.872ZM64.0269 81.16C63.2375 81.16 62.5762 80.9147 62.0429 80.424C61.5309 79.912 61.2749 79.2827 61.2749 78.536C61.2749 77.7893 61.5309 77.1707 62.0429 76.68C62.5762 76.168 63.2375 75.912 64.0269 75.912C64.8162 75.912 65.4669 76.168 65.9789 76.68C66.5122 77.1707 66.7789 77.7893 66.7789 78.536C66.7789 79.2827 66.5122 79.912 65.9789 80.424C65.4669 80.9147 64.8162 81.16 64.0269 81.16ZM66.2349 83.272V101H61.7549V83.272H66.2349ZM80.4851 83.016C82.5971 83.016 84.3038 83.688 85.6051 85.032C86.9065 86.3547 87.5571 88.2107 87.5571 90.6V101H83.0771V91.208C83.0771 89.8 82.7251 88.7227 82.0211 87.976C81.3171 87.208 80.3571 86.824 79.1411 86.824C77.9038 86.824 76.9225 87.208 76.1971 87.976C75.4931 88.7227 75.1411 89.8 75.1411 91.208V101H70.6611V83.272H75.1411V85.48C75.7385 84.712 76.4958 84.1147 77.4131 83.688C78.3518 83.24 79.3758 83.016 80.4851 83.016Z" fill="#101010"/>
</svg>
