<svg width="208" height="66" viewBox="0 0 208 66" fill="none" xmlns="http://www.w3.org/2000/svg">
<rect width="208" height="66" rx="14" fill="#0E0E0E"/>
<path d="M36.5584 26.4253C37.7384 26.4253 38.7684 26.6653 39.6484 27.1453C40.5484 27.6253 41.2384 28.2553 41.7184 29.0353V26.6653H46.8484V43.3753C46.8484 44.9153 46.5384 46.3053 45.9184 47.5453C45.3184 48.8053 44.3884 49.8053 43.1284 50.5453C41.8884 51.2853 40.3384 51.6553 38.4784 51.6553C35.9984 51.6553 33.9884 51.0653 32.4484 49.8853C30.9084 48.7253 30.0284 47.1453 29.8084 45.1453H34.8784C35.0384 45.7853 35.4184 46.2853 36.0184 46.6453C36.6184 47.0253 37.3584 47.2153 38.2384 47.2153C39.2984 47.2153 40.1384 46.9053 40.7584 46.2853C41.3984 45.6853 41.7184 44.7153 41.7184 43.3753V41.0053C41.2184 41.7853 40.5284 42.4253 39.6484 42.9253C38.7684 43.4053 37.7384 43.6453 36.5584 43.6453C35.1784 43.6453 33.9284 43.2953 32.8084 42.5953C31.6884 41.8753 30.7984 40.8653 30.1384 39.5653C29.4984 38.2453 29.1784 36.7253 29.1784 35.0053C29.1784 33.2853 29.4984 31.7753 30.1384 30.4753C30.7984 29.1753 31.6884 28.1753 32.8084 27.4753C33.9284 26.7753 35.1784 26.4253 36.5584 26.4253ZM41.7184 35.0353C41.7184 33.7553 41.3584 32.7453 40.6384 32.0053C39.9384 31.2653 39.0784 30.8953 38.0584 30.8953C37.0384 30.8953 36.1684 31.2653 35.4484 32.0053C34.7484 32.7253 34.3984 33.7253 34.3984 35.0053C34.3984 36.2853 34.7484 37.3053 35.4484 38.0653C36.1684 38.8053 37.0384 39.1753 38.0584 39.1753C39.0784 39.1753 39.9384 38.8053 40.6384 38.0653C41.3584 37.3253 41.7184 36.3153 41.7184 35.0353ZM58.1797 43.6453C56.5397 43.6453 55.0597 43.2953 53.7397 42.5953C52.4397 41.8953 51.4097 40.8953 50.6497 39.5953C49.9097 38.2953 49.5397 36.7753 49.5397 35.0353C49.5397 33.3153 49.9197 31.8053 50.6797 30.5053C51.4397 29.1853 52.4797 28.1753 53.7997 27.4753C55.1197 26.7753 56.5997 26.4253 58.2397 26.4253C59.8797 26.4253 61.3597 26.7753 62.6797 27.4753C63.9997 28.1753 65.0397 29.1853 65.7997 30.5053C66.5597 31.8053 66.9397 33.3153 66.9397 35.0353C66.9397 36.7553 66.5497 38.2753 65.7697 39.5953C65.0097 40.8953 63.9597 41.8953 62.6197 42.5953C61.2997 43.2953 59.8197 43.6453 58.1797 43.6453ZM58.1797 39.2053C59.1597 39.2053 59.9897 38.8453 60.6697 38.1253C61.3697 37.4053 61.7197 36.3753 61.7197 35.0353C61.7197 33.6953 61.3797 32.6653 60.6997 31.9453C60.0397 31.2253 59.2197 30.8653 58.2397 30.8653C57.2397 30.8653 56.4097 31.2253 55.7497 31.9453C55.0897 32.6453 54.7597 33.6753 54.7597 35.0353C54.7597 36.3753 55.0797 37.4053 55.7197 38.1253C56.3797 38.8453 57.1997 39.2053 58.1797 39.2053ZM91.0213 26.4853C93.1013 26.4853 94.7513 27.1153 95.9713 28.3753C97.2113 29.6353 97.8313 31.3853 97.8313 33.6253V43.4053H92.7313V34.3153C92.7313 33.2353 92.4413 32.4053 91.8613 31.8253C91.3013 31.2253 90.5213 30.9253 89.5213 30.9253C88.5213 30.9253 87.7313 31.2253 87.1513 31.8253C86.5913 32.4053 86.3113 33.2353 86.3113 34.3153V43.4053H81.2113V34.3153C81.2113 33.2353 80.9213 32.4053 80.3413 31.8253C79.7813 31.2253 79.0013 30.9253 78.0013 30.9253C77.0013 30.9253 76.2113 31.2253 75.6313 31.8253C75.0713 32.4053 74.7913 33.2353 74.7913 34.3153V43.4053H69.6613V26.6653H74.7913V28.7653C75.3113 28.0653 75.9913 27.5153 76.8313 27.1153C77.6713 26.6953 78.6213 26.4853 79.6813 26.4853C80.9413 26.4853 82.0613 26.7553 83.0413 27.2953C84.0413 27.8353 84.8213 28.6053 85.3813 29.6053C85.9613 28.6853 86.7513 27.9353 87.7513 27.3553C88.7513 26.7753 89.8413 26.4853 91.0213 26.4853ZM100.399 35.0053C100.399 33.2853 100.719 31.7753 101.359 30.4753C102.019 29.1753 102.909 28.1753 104.029 27.4753C105.149 26.7753 106.399 26.4253 107.779 26.4253C108.959 26.4253 109.989 26.6653 110.869 27.1453C111.769 27.6253 112.459 28.2553 112.939 29.0353V26.6653H118.069V43.4053H112.939V41.0353C112.439 41.8153 111.739 42.4453 110.839 42.9253C109.959 43.4053 108.929 43.6453 107.749 43.6453C106.389 43.6453 105.149 43.2953 104.029 42.5953C102.909 41.8753 102.019 40.8653 101.359 39.5653C100.719 38.2453 100.399 36.7253 100.399 35.0053ZM112.939 35.0353C112.939 33.7553 112.579 32.7453 111.859 32.0053C111.159 31.2653 110.299 30.8953 109.279 30.8953C108.259 30.8953 107.389 31.2653 106.669 32.0053C105.969 32.7253 105.619 33.7253 105.619 35.0053C105.619 36.2853 105.969 37.3053 106.669 38.0653C107.389 38.8053 108.259 39.1753 109.279 39.1753C110.299 39.1753 111.159 38.8053 111.859 38.0653C112.579 37.3253 112.939 36.3153 112.939 35.0353ZM126.91 29.4553C127.51 28.5353 128.26 27.8153 129.16 27.2953C130.06 26.7553 131.06 26.4853 132.16 26.4853V31.9153H130.75C129.47 31.9153 128.51 32.1953 127.87 32.7553C127.23 33.2953 126.91 34.2553 126.91 35.6353V43.4053H121.78V26.6653H126.91V29.4553ZM142.142 38.6053L145.772 26.6653H151.232L145.292 43.4053H138.962L133.022 26.6653H138.512L142.142 38.6053ZM155.972 24.9253C155.072 24.9253 154.332 24.6653 153.752 24.1453C153.192 23.6053 152.912 22.9453 152.912 22.1653C152.912 21.3653 153.192 20.7053 153.752 20.1853C154.332 19.6453 155.072 19.3753 155.972 19.3753C156.852 19.3753 157.572 19.6453 158.132 20.1853C158.712 20.7053 159.002 21.3653 159.002 22.1653C159.002 22.9453 158.712 23.6053 158.132 24.1453C157.572 24.6653 156.852 24.9253 155.972 24.9253ZM158.522 26.6653V43.4053H153.392V26.6653H158.522ZM172.439 26.4853C174.399 26.4853 175.959 27.1253 177.119 28.4053C178.299 29.6653 178.889 31.4053 178.889 33.6253V43.4053H173.789V34.3153C173.789 33.1953 173.499 32.3253 172.919 31.7053C172.339 31.0853 171.559 30.7753 170.579 30.7753C169.599 30.7753 168.819 31.0853 168.239 31.7053C167.659 32.3253 167.369 33.1953 167.369 34.3153V43.4053H162.239V26.6653H167.369V28.8853C167.889 28.1453 168.589 27.5653 169.469 27.1453C170.349 26.7053 171.339 26.4853 172.439 26.4853Z" fill="#F5F5F5"/>
</svg>
